<!DOCTYPE svg PUBLIC "-//W3C//DTD SVG 1.1//EN" "http://www.w3.org/Graphics/SVG/1.1/DTD/svg11.dtd">
<!-- Uploaded to: SVG Repo, www.svgrepo.com, Transformed by: SVG Repo Mixer Tools -->
<svg fill="#000000" height="800px" width="800px" version="1.1" id="Layer_1" xmlns="http://www.w3.org/2000/svg" xmlns:xlink="http://www.w3.org/1999/xlink" viewBox="0 0 512 512" xml:space="preserve">
<g id="SVGRepo_bgCarrier" stroke-width="0"/>
<g id="SVGRepo_tracerCarrier" stroke-linecap="round" stroke-linejoin="round"/>
<g id="SVGRepo_iconCarrier"> <g> <g> <path d="M378.829,39.492c-0.998-1.05-2.15-1.911-3.362-2.68V17.067C375.467,7.654,367.812,0,358.4,0H153.6 c-9.412,0-17.067,7.654-17.067,17.067v19.746c-1.212,0.768-2.364,1.63-3.362,2.68c-3.217,3.413-4.898,8.047-4.617,12.732 l4.813,80.137c4.002-2.082,7.023-3.652,7.56-3.942c18.295-10.607,29.739-30.413,29.739-51.618V51.2h17.067v25.6 c0,27.273-14.711,52.745-38.383,66.458c-0.555,0.316-7.407,3.883-14.865,7.748l18.645,310.827 c0.375,6.084,3.959,11.213,9.003,13.935v19.166c0,9.412,7.654,17.067,17.067,17.067h34.133c9.412,0,17.067-7.654,17.067-17.067 v-19.268c5.077-2.816,8.585-8.098,8.781-14.353l7.834-264.832c0.128-4.907,4.079-8.747,8.986-8.747s8.858,3.84,8.986,8.781 l7.834,264.806c0.196,6.246,3.703,11.529,8.781,14.345v19.268c0,9.412,7.654,17.067,17.067,17.067H332.8 c9.412,0,17.067-7.654,17.067-17.067v-19.166c5.043-2.722,8.627-7.851,9.003-13.943l18.654-310.946 c-12.783-6.519-14.532-7.424-14.857-7.612c-23.689-13.722-38.4-39.194-38.4-66.466V51.2h17.067v25.6 c0,21.205,11.443,41.011,29.867,51.686c0.401,0.213,3.226,1.655,7.441,3.806l4.804-80.077 C383.727,47.539,382.046,42.906,378.829,39.492z M179.2,494.933v-17.067h34.133l0.009,17.067H179.2z M253.5,54.485 c-17.34,11.836-31.693,25.574-31.633,30.746c0.06,4.719-3.721,8.576-8.431,8.636h-0.102c-4.668,0-8.474-3.755-8.533-8.431 c-0.137-11.315,12.109-24.149,24.491-34.236h43.136c7.543,9.259,17.357,18.27,24.943,17.169c4.727-0.717,9.011,2.483,9.728,7.134 c0.717,4.659-2.475,9.011-7.134,9.728C279.979,88.226,262.016,66.654,253.5,54.485z M332.8,477.867l0.009,17.067h-34.142v-17.067 H332.8z M358.4,34.133h-25.6H179.2h-25.6V17.067h204.8V34.133z"/> </g> </g> </g>
</svg>